<mxfile host="app.diagrams.net" agent="Mozilla/5.0 (Windows NT 10.0; Win64; x64) AppleWebKit/537.36 (KHTML, like Gecko) Chrome/141.0.0.0 Safari/537.36" version="28.2.5">
  <diagram name="Page-1" id="fA8rbFVQtm8X-COBWiN-">
    <mxGraphModel dx="727" dy="394" grid="1" gridSize="10" guides="1" tooltips="1" connect="1" arrows="1" fold="1" page="1" pageScale="1" pageWidth="827" pageHeight="1169" math="0" shadow="0">
      <root>
        <mxCell id="0" />
        <mxCell id="1" parent="0" />
        <mxCell id="iwnp29BoLMtw_2axcLZW-44" value="" style="rounded=0;whiteSpace=wrap;html=1;" parent="1" vertex="1">
          <mxGeometry x="20" y="51" width="510" height="340" as="geometry" />
        </mxCell>
        <mxCell id="iwnp29BoLMtw_2axcLZW-23" value="&lt;font face=&quot;Times New Roman&quot;&gt;&lt;span style=&quot;font-size: 10px;&quot;&gt;&lt;b&gt;&amp;nbsp; &amp;nbsp; &amp;nbsp; &amp;nbsp; &amp;nbsp; &amp;nbsp; &amp;nbsp; &amp;nbsp; &amp;nbsp; &amp;nbsp; &amp;nbsp; &amp;nbsp; &amp;nbsp; Layer 5: Comm.&lt;/b&gt;&lt;/span&gt;&lt;/font&gt;" style="rounded=0;whiteSpace=wrap;html=1;fillColor=#ffe6cc;strokeColor=#d79b00;" parent="1" vertex="1">
          <mxGeometry x="33.95" y="333" width="146.05" height="50" as="geometry" />
        </mxCell>
        <mxCell id="iwnp29BoLMtw_2axcLZW-41" style="edgeStyle=orthogonalEdgeStyle;rounded=0;orthogonalLoop=1;jettySize=auto;html=1;exitX=0.5;exitY=1;exitDx=0;exitDy=0;entryX=0.5;entryY=0;entryDx=0;entryDy=0;" parent="1" source="iwnp29BoLMtw_2axcLZW-20" target="iwnp29BoLMtw_2axcLZW-23" edge="1">
          <mxGeometry relative="1" as="geometry" />
        </mxCell>
        <mxCell id="iwnp29BoLMtw_2axcLZW-20" value="&lt;font face=&quot;Times New Roman&quot;&gt;&lt;span style=&quot;font-size: 10px;&quot;&gt;&lt;b&gt;&amp;nbsp; &amp;nbsp; &amp;nbsp; &amp;nbsp; &amp;nbsp; &amp;nbsp; &amp;nbsp; &amp;nbsp; &amp;nbsp; &amp;nbsp; Layer 4: RL&lt;/b&gt;&lt;/span&gt;&lt;/font&gt;" style="rounded=0;whiteSpace=wrap;html=1;fillColor=#f5f5f5;strokeColor=#666666;fontColor=#333333;" parent="1" vertex="1">
          <mxGeometry x="32.95" y="263.90999999999997" width="147.05" height="50" as="geometry" />
        </mxCell>
        <mxCell id="iwnp29BoLMtw_2axcLZW-40" style="edgeStyle=orthogonalEdgeStyle;rounded=0;orthogonalLoop=1;jettySize=auto;html=1;exitX=0.5;exitY=1;exitDx=0;exitDy=0;entryX=0.5;entryY=0;entryDx=0;entryDy=0;" parent="1" source="iwnp29BoLMtw_2axcLZW-19" target="iwnp29BoLMtw_2axcLZW-20" edge="1">
          <mxGeometry relative="1" as="geometry" />
        </mxCell>
        <mxCell id="iwnp29BoLMtw_2axcLZW-19" value="&lt;font face=&quot;Times New Roman&quot;&gt;&lt;span style=&quot;font-size: 10px;&quot;&gt;&lt;b&gt;&amp;nbsp; &amp;nbsp; &amp;nbsp; &amp;nbsp; &amp;nbsp; &amp;nbsp; &amp;nbsp; &amp;nbsp; &amp;nbsp; &amp;nbsp; &amp;nbsp; &amp;nbsp; &amp;nbsp; &amp;nbsp;Layer 3: K-Mean&lt;/b&gt;&lt;/span&gt;&lt;/font&gt;" style="rounded=0;whiteSpace=wrap;html=1;fillColor=#e1d5e7;strokeColor=#9673a6;" parent="1" vertex="1">
          <mxGeometry x="32.95" y="196" width="147.05" height="50" as="geometry" />
        </mxCell>
        <mxCell id="iwnp29BoLMtw_2axcLZW-33" style="edgeStyle=orthogonalEdgeStyle;rounded=0;orthogonalLoop=1;jettySize=auto;html=1;exitX=0.5;exitY=1;exitDx=0;exitDy=0;entryX=0.5;entryY=0;entryDx=0;entryDy=0;" parent="1" source="iwnp29BoLMtw_2axcLZW-18" target="iwnp29BoLMtw_2axcLZW-19" edge="1">
          <mxGeometry relative="1" as="geometry" />
        </mxCell>
        <mxCell id="iwnp29BoLMtw_2axcLZW-18" value="&lt;font face=&quot;Times New Roman&quot;&gt;&lt;span style=&quot;font-size: 10px;&quot;&gt;&lt;b&gt;&amp;nbsp; &amp;nbsp; &amp;nbsp; &amp;nbsp; &amp;nbsp; &amp;nbsp; &amp;nbsp; &amp;nbsp; &amp;nbsp; &amp;nbsp; &amp;nbsp; &amp;nbsp; Layer 2: EEKA&lt;/b&gt;&lt;/span&gt;&lt;/font&gt;" style="rounded=0;whiteSpace=wrap;html=1;fillColor=#d5e8d4;strokeColor=#82b366;" parent="1" vertex="1">
          <mxGeometry x="32.94999999999999" y="127" width="147.05" height="50" as="geometry" />
        </mxCell>
        <mxCell id="iwnp29BoLMtw_2axcLZW-32" style="edgeStyle=orthogonalEdgeStyle;rounded=0;orthogonalLoop=1;jettySize=auto;html=1;exitX=0.5;exitY=1;exitDx=0;exitDy=0;entryX=0.5;entryY=0;entryDx=0;entryDy=0;" parent="1" source="iwnp29BoLMtw_2axcLZW-16" target="iwnp29BoLMtw_2axcLZW-18" edge="1">
          <mxGeometry relative="1" as="geometry" />
        </mxCell>
        <mxCell id="iwnp29BoLMtw_2axcLZW-16" value="&lt;font style=&quot;font-size: 10px;&quot; face=&quot;Times New Roman&quot;&gt;&lt;b&gt;&amp;nbsp; &amp;nbsp; &amp;nbsp; &amp;nbsp; &amp;nbsp; &amp;nbsp; &amp;nbsp; &amp;nbsp; &amp;nbsp; &amp;nbsp; &amp;nbsp; &amp;nbsp; &amp;nbsp;Layer 1: DEECP&lt;/b&gt;&lt;/font&gt;" style="rounded=0;whiteSpace=wrap;html=1;fillColor=#dae8fc;strokeColor=#6c8ebf;" parent="1" vertex="1">
          <mxGeometry x="32.95" y="60" width="147.05" height="50" as="geometry" />
        </mxCell>
        <mxCell id="iwnp29BoLMtw_2axcLZW-1" value="" style="image;sketch=0;aspect=fixed;html=1;points=[];align=center;fontSize=12;image=img/lib/mscae/HDInsightClusters.svg;" parent="1" vertex="1">
          <mxGeometry x="40.45" y="65" width="40.82" height="40" as="geometry" />
        </mxCell>
        <mxCell id="iwnp29BoLMtw_2axcLZW-2" value="" style="image;aspect=fixed;html=1;points=[];align=center;fontSize=12;image=img/lib/azure2/other/HDI_AKS_Cluster.svg;" parent="1" vertex="1">
          <mxGeometry x="33.95" y="198" width="22.34" height="25.14" as="geometry" />
        </mxCell>
        <mxCell id="iwnp29BoLMtw_2axcLZW-4" value="" style="image;aspect=fixed;html=1;points=[];align=center;fontSize=12;image=img/lib/azure2/other/HDI_AKS_Cluster.svg;" parent="1" vertex="1">
          <mxGeometry x="70.63000000000001" y="198" width="22.34" height="25.14" as="geometry" />
        </mxCell>
        <mxCell id="iwnp29BoLMtw_2axcLZW-5" value="" style="image;aspect=fixed;html=1;points=[];align=center;fontSize=12;image=img/lib/azure2/other/HDI_AKS_Cluster.svg;" parent="1" vertex="1">
          <mxGeometry x="52.29" y="220.14" width="22.34" height="25.14" as="geometry" />
        </mxCell>
        <mxCell id="iwnp29BoLMtw_2axcLZW-8" value="" style="endArrow=none;dashed=1;html=1;dashPattern=1 3;strokeWidth=2;rounded=0;exitX=0.629;exitY=1.114;exitDx=0;exitDy=0;exitPerimeter=0;" parent="1" source="iwnp29BoLMtw_2axcLZW-2" target="iwnp29BoLMtw_2axcLZW-5" edge="1">
          <mxGeometry width="50" height="50" relative="1" as="geometry">
            <mxPoint x="392" y="276" as="sourcePoint" />
            <mxPoint x="442" y="226" as="targetPoint" />
          </mxGeometry>
        </mxCell>
        <mxCell id="iwnp29BoLMtw_2axcLZW-9" value="" style="endArrow=none;dashed=1;html=1;dashPattern=1 3;strokeWidth=2;rounded=0;entryX=0.509;entryY=0.915;entryDx=0;entryDy=0;entryPerimeter=0;" parent="1" source="iwnp29BoLMtw_2axcLZW-5" target="iwnp29BoLMtw_2axcLZW-4" edge="1">
          <mxGeometry width="50" height="50" relative="1" as="geometry">
            <mxPoint x="392" y="276" as="sourcePoint" />
            <mxPoint x="442" y="226" as="targetPoint" />
          </mxGeometry>
        </mxCell>
        <mxCell id="iwnp29BoLMtw_2axcLZW-11" value="" style="endArrow=none;dashed=1;html=1;dashPattern=1 3;strokeWidth=2;rounded=0;entryX=0.061;entryY=0.398;entryDx=0;entryDy=0;entryPerimeter=0;" parent="1" source="iwnp29BoLMtw_2axcLZW-2" target="iwnp29BoLMtw_2axcLZW-4" edge="1">
          <mxGeometry width="50" height="50" relative="1" as="geometry">
            <mxPoint x="392" y="276" as="sourcePoint" />
            <mxPoint x="442" y="226" as="targetPoint" />
          </mxGeometry>
        </mxCell>
        <mxCell id="iwnp29BoLMtw_2axcLZW-15" value="" style="sketch=0;html=1;aspect=fixed;strokeColor=none;shadow=0;fillColor=light-dark(#6c7075, #3f85db);verticalAlign=top;labelPosition=center;verticalLabelPosition=bottom;shape=mxgraph.gcp2.capabilities" parent="1" vertex="1">
          <mxGeometry x="30" y="276.17" width="35.07" height="26.65" as="geometry" />
        </mxCell>
        <mxCell id="iwnp29BoLMtw_2axcLZW-17" value="" style="sketch=0;outlineConnect=0;fontColor=#232F3E;gradientColor=none;fillColor=#7AA116;strokeColor=none;dashed=0;verticalLabelPosition=bottom;verticalAlign=top;align=center;html=1;fontSize=12;fontStyle=0;aspect=fixed;pointerEvents=1;shape=mxgraph.aws4.iot_greengrass_interprocess_communication;" parent="1" vertex="1">
          <mxGeometry x="37.36" y="129" width="47" height="47" as="geometry" />
        </mxCell>
        <mxCell id="iwnp29BoLMtw_2axcLZW-21" value="" style="shape=image;html=1;verticalAlign=top;verticalLabelPosition=bottom;labelBackgroundColor=#ffffff;imageAspect=0;aspect=fixed;image=https://icons.diagrams.net/icon-cache1/Phosphor_Duotone_Vol_4-2933/robot-duotone-1373.svg" parent="1" vertex="1">
          <mxGeometry x="44.96999999999999" y="266.90999999999997" width="46" height="46" as="geometry" />
        </mxCell>
        <mxCell id="iwnp29BoLMtw_2axcLZW-22" value="" style="sketch=0;pointerEvents=1;shadow=0;dashed=0;html=1;strokeColor=#d79b00;labelPosition=center;verticalLabelPosition=bottom;verticalAlign=top;align=center;fillColor=#ffe6cc;shape=mxgraph.mscae.intune.intune_wifi_profiles" parent="1" vertex="1">
          <mxGeometry x="38.36000000000001" y="338" width="31.73" height="40" as="geometry" />
        </mxCell>
        <mxCell id="iwnp29BoLMtw_2axcLZW-27" value="&lt;span style=&quot;font-family: &amp;quot;Times New Roman&amp;quot;;&quot;&gt;&lt;font style=&quot;font-size: 11px;&quot;&gt;Selects high-energy cluster head candidates based on residual node energy&lt;/font&gt;&lt;/span&gt;" style="rounded=1;whiteSpace=wrap;html=1;fillColor=#dae8fc;strokeColor=#6c8ebf;" parent="1" vertex="1">
          <mxGeometry x="180" y="76" width="340" height="20" as="geometry" />
        </mxCell>
        <mxCell id="iwnp29BoLMtw_2axcLZW-28" value="&lt;font style=&quot;font-size: 11px;&quot; face=&quot;Times New Roman&quot;&gt;Refines candidate CHs to optimally distribute them across the network&lt;/font&gt;" style="rounded=1;whiteSpace=wrap;html=1;fillColor=#d5e8d4;strokeColor=#82b366;" parent="1" vertex="1">
          <mxGeometry x="180" y="143" width="340" height="20" as="geometry" />
        </mxCell>
        <mxCell id="iwnp29BoLMtw_2axcLZW-29" value="&lt;font style=&quot;font-size: 11px;&quot; face=&quot;Times New Roman&quot;&gt;Forms compact clusters by assigning nodes to the nearest CH&lt;/font&gt;" style="rounded=1;whiteSpace=wrap;html=1;fillColor=#e1d5e7;strokeColor=#9673a6;" parent="1" vertex="1">
          <mxGeometry x="180" y="212" width="340" height="20" as="geometry" />
        </mxCell>
        <mxCell id="iwnp29BoLMtw_2axcLZW-30" value="&lt;font style=&quot;font-size: 11px;&quot; face=&quot;Times New Roman&quot;&gt;Dynamically adjusts CH roles, cluster membership and transmit power&lt;/font&gt;" style="rounded=1;whiteSpace=wrap;html=1;fillColor=#f5f5f5;strokeColor=#666666;fontColor=#333333;" parent="1" vertex="1">
          <mxGeometry x="180" y="277.82" width="340" height="20" as="geometry" />
        </mxCell>
        <mxCell id="iwnp29BoLMtw_2axcLZW-31" value="&lt;font style=&quot;font-size: 11px;&quot; face=&quot;Times New Roman&quot;&gt;&amp;nbsp;Simulates transmission and updates node energy based on a radio model&lt;/font&gt;" style="rounded=1;whiteSpace=wrap;html=1;fillColor=#ffe6cc;strokeColor=#d79b00;" parent="1" vertex="1">
          <mxGeometry x="180" y="348" width="340" height="20" as="geometry" />
        </mxCell>
        <mxCell id="iwnp29BoLMtw_2axcLZW-42" value="&lt;p class=&quot;MsoNormal&quot;&gt;&lt;span style=&quot;font-family: &amp;quot;Times New Roman&amp;quot;;&quot;&gt;&lt;b&gt;Hybrid Clustering for Energy Optimization in IoT-WSNs&lt;/b&gt;&lt;/span&gt;&lt;/p&gt;" style="rounded=0;whiteSpace=wrap;html=1;fillColor=#f8cecc;strokeColor=#b85450;" parent="1" vertex="1">
          <mxGeometry x="20" y="11" width="510" height="40" as="geometry" />
        </mxCell>
        <mxCell id="iwnp29BoLMtw_2axcLZW-43" value="&lt;p class=&quot;MsoNormal&quot;&gt;&lt;font face=&quot;Times New Roman&quot;&gt;&lt;b&gt;Improved : Network Lifetime by 19%,&amp;nbsp;&lt;/b&gt;&lt;/font&gt;&lt;b&gt;&lt;font face=&quot;Times New Roman&quot;&gt;Energy Usage&lt;/font&gt;&lt;/b&gt;&lt;b style=&quot;background-color: transparent; color: light-dark(rgb(0, 0, 0), rgb(255, 255, 255));&quot;&gt;&lt;font face=&quot;Times New Roman&quot; style=&quot;&quot;&gt;&amp;nbsp;&lt;/font&gt;&lt;font face=&quot;Times New Roman&quot;&gt;by 13%,&amp;nbsp;&lt;/font&gt;&lt;/b&gt;&lt;b style=&quot;font-family: &amp;quot;Times New Roman&amp;quot;; background-color: transparent; color: light-dark(rgb(0, 0, 0), rgb(255, 255, 255));&quot;&gt;Throughput by 5%, PDR by 1%&lt;/b&gt;&lt;/p&gt;" style="rounded=0;whiteSpace=wrap;html=1;fillColor=#f8cecc;strokeColor=#b85450;" parent="1" vertex="1">
          <mxGeometry x="20" y="391" width="510" height="40" as="geometry" />
        </mxCell>
      </root>
    </mxGraphModel>
  </diagram>
</mxfile>
